<?xml version="1.0" encoding="UTF-8" standalone="no"?>
<svg
   xmlns:dc="http://purl.org/dc/elements/1.1/"
   xmlns:cc="http://creativecommons.org/ns#"
   xmlns:rdf="http://www.w3.org/1999/02/22-rdf-syntax-ns#"
   xmlns:svg="http://www.w3.org/2000/svg"
   xmlns="http://www.w3.org/2000/svg"
   xmlns:sodipodi="http://sodipodi.sourceforge.net/DTD/sodipodi-0.dtd"
   xmlns:inkscape="http://www.inkscape.org/namespaces/inkscape"
   viewBox="0 0 8 8"
   width="16"
   height="16"
   style="fill:#ffffff"
   version="1.1"
   id="icon-bitbucket"
   sodipodi:docname="bitbucket-inkscape.svg"
   inkscape:version="0.92.0 r15299">
  <metadata
     id="metadata10">
    <rdf:RDF>
      <cc:Work
         rdf:about="">
        <dc:format>image/svg+xml</dc:format>
        <dc:type
           rdf:resource="http://purl.org/dc/dcmitype/StillImage" />
        <dc:title></dc:title>
      </cc:Work>
    </rdf:RDF>
  </metadata>
  <defs
     id="defs8" />
  <sodipodi:namedview
     pagecolor="#ffffff"
     bordercolor="#666666"
     borderopacity="1"
     objecttolerance="10"
     gridtolerance="10"
     guidetolerance="10"
     inkscape:pageopacity="0"
     inkscape:pageshadow="2"
     inkscape:window-width="2754"
     inkscape:window-height="1755"
     id="namedview6"
     showgrid="false"
     inkscape:pagecheckerboard="true"
     inkscape:zoom="78.666667"
     inkscape:cx="8.2086643"
     inkscape:cy="9.5044537"
     inkscape:window-x="-13"
     inkscape:window-y="-13"
     inkscape:window-maximized="1"
     inkscape:current-layer="icon-bitbucket" />
  <path
     d="M 4,-4.0000001e-8 C 2.4513598,-4.0000001e-8 0.80775,0.23799997 0.80775,1.2 c 0,0.6063999 0.2257519,2.361 0.3366826,3.1749999 C 1.1815422,4.6474001 1.3552208,4.8876 1.6058125,5 1.6058125,5 2.4038751,5.6 4,5.6 5.596125,5.6 6.394187,5 6.394187,5 6.644779,4.8876 6.818457,4.6474001 6.855567,4.3749999 6.966498,3.561 7.19225,1.8063999 7.19225,1.2 7.19225,0.23799997 5.549039,-4.0000001e-8 4,-4.0000001e-8 Z M 4,0.79999995 C 5.521107,0.79999995 6.344907,1.2268 6.419127,1.4 6.398777,1.4476 6.315479,1.5155 6.182202,1.5875 5.83305,1.7766999 5.101326,1.9999999 4,1.9999999 2.8452036,1.9999999 2.0951246,1.7500999 1.767919,1.5625 1.6573873,1.4993001 1.5940411,1.4509 1.5808731,1.4124999 1.6327472,1.2453001 2.4549509,0.79999995 4,0.79999995 Z M 4,2.7999999 c 0.659998,0 1.197094,0.5384 1.197094,1.2000001 C 5.197094,4.6616001 4.659998,5.1999999 4,5.1999999 3.3400023,5.1999999 2.8029063,4.6616001 2.8029063,4 2.8029063,3.3383999 3.3400023,2.7999999 4,2.7999999 Z m 0,0.8 C 3.779621,3.5999999 3.6009688,3.779086 3.6009688,4 3.6009688,4.2209141 3.779621,4.4 4,4.4 4.220379,4.4 4.399031,4.2209141 4.399031,4 4.399031,3.779086 4.220379,3.5999999 4,3.5999999 Z M 1.6556915,5.425 2.0048438,7.2 C 2.0048438,7.2 2.4038751,8 4,8 5.596125,8 5.995156,7.2 5.995156,7.2 L 6.344309,5.425 C 6.163148,5.5449999 5.387033,5.9999999 4,5.9999999 c -1.3870326,0 -2.1627493,-0.455 -2.3443085,-0.5749999 z"
     id="path2"
     inkscape:connector-curvature="0"
     style="stroke-width:0.39951533" />
</svg>
