<svg style="position: absolute; width: 0; height: 0; overflow: hidden;" version="1.1" xmlns="http://www.w3.org/2000/svg" xmlns:xlink="http://www.w3.org/1999/xlink">
  <defs>
    <symbol id="icon-bitbucket" viewBox="0 0 6.3845 8">
    <polygon
       style="fill:none"
       id="polygon31"
       points="40.9,25.12 21.23,25.12 24.7,43.51 37.75,43.51 "
       class="cls-2" />
    <path
       style="fill:#ffffff;fill-opacity:1;stroke-width:0.1285409"
       d="m 0.26172968,55.886409 a 0.25708182,0.25708182 0 0 0 -0.25708183,0.298256 l 1.09134235,6.624877 a 0.34963128,0.34963128 0 0 0 0.1443575,0.228463 0.34834588,0.34834588 0 0 1 -0.027365,-0.02134 L 3.1860357,60.674559 2.7336316,58.310611 H 5.2620214 7.6746745 L 7.3279654,60.445092 8.021885,56.18592 A 0.25708182,0.25708182 0 0 0 7.7648033,55.887664 Z m 0.97861812,7.151596 a 0.34963128,0.34963128 0 0 0 0.029626,0.01858 0.34834588,0.34834588 0 0 1 -0.029626,-0.01858 z m 0.029626,0.01858 a 0.34963128,0.34963128 0 0 0 0.031132,0.01556 0.34834588,0.34834588 0 0 1 -0.031132,-0.01556 z m 0.031132,0.01556 a 0.34963128,0.34963128 0 0 0 0.020085,0.0075 0.34834588,0.34834588 0 0 1 -0.020085,-0.0075 z"
       id="path33"
       inkscape:connector-curvature="0" />
    <path
       inkscape:connector-curvature="0"
       style="opacity:1;fill:url(#linearGradient4754);stroke-width:0.1285409"
       id="path35"
       d="M 7.6747359,58.310669 H 5.2620229 L 4.857119,60.674537 H 3.1860873 l -1.9731031,2.342016 a 0.34834588,0.34834588 0 0 0 0.2249466,0.08484 h 5.2367569 a 0.25708182,0.25708182 0 0 0 0.2570821,-0.21595 z"
       class="cls-4" />
    </symbol>
  </defs>
</svg>
