<svg style="position: absolute; width: 0; height: 0; overflow: hidden;" version="1.1" xmlns="http://www.w3.org/2000/svg" xmlns:xlink="http://www.w3.org/1999/xlink">
  <defs>
    <symbol id="icon-patreon" viewBox="0 0 16 16">
      <path d="M 7.500025,1.99e-5 C 3.357844,1.99e-5 0,3.35784 0,7.49998 V 14.993 H 1.741023 V 13.25285 10.93264 7.49998 c 0,-3.18039 2.578578,-5.7589501 5.759002,-5.7589501 3.180424,0 5.758952,2.5785601 5.758952,5.7589501 0,3.09095 -2.435781,5.61251 -5.492327,5.75196 -0.971156,-0.008 -1.7991,-0.16551 -2.161757,-0.38867 v -2.47519 c 0.541254,0.35439 1.188619,0.561 1.88387,0.561 1.901635,0 3.443086,-1.54144 3.443086,-3.44306 0,-1.90161 -1.541451,-3.44391 -3.443086,-3.44391 -1.901634,0 -3.443084,1.5423 -3.443084,3.44391 V 14.993 H 7.185718 C 7.289906,14.997 7.39478,15 7.500025,15 11.642207,15 15,11.64224 15,7.50009 15,3.35794 11.642207,1.199e-4 7.500025,1.199e-4 Z M 7.25846,13.25285 h 0.495203 c -0.08416,0.004 -0.168572,0.006 -0.253638,0.006 -0.08082,0 -0.161566,-0.003 -0.241565,-0.006 z" fill="#fff"/>
    </symbol>
  </defs>
</svg>
