<?xml version="1.0" encoding="UTF-8"?>
<svg id="icon-bitbucket" width="16" height="16" fill="#ffffff" version="1.1" viewBox="0 0 8 8" xmlns="http://www.w3.org/2000/svg" xmlns:cc="http://creativecommons.org/ns#" xmlns:dc="http://purl.org/dc/elements/1.1/" xmlns:rdf="http://www.w3.org/1999/02/22-rdf-syntax-ns#">
 <metadata>
  <rdf:RDF>
   <cc:Work rdf:about="">
    <dc:format>image/svg+xml</dc:format>
    <dc:type rdf:resource="http://purl.org/dc/dcmitype/StillImage"/>
    <dc:title/>
   </cc:Work>
  </rdf:RDF>
 </metadata>
 <path d="m4-4e-8c-1.5486 0-3.1922 0.238-3.1922 1.2 0 0.6064 0.22575 2.361 0.33668 3.175 0.03711 0.2724 0.21079 0.5126 0.46138 0.625 0 0 0.79806 0.6 2.3942 0.6 1.5961 0 2.3942-0.6 2.3942-0.6 0.25059-0.1124 0.42427-0.3526 0.46138-0.625 0.11093-0.814 0.33668-2.5686 0.33668-3.175 0-0.962-1.6432-1.2-3.1922-1.2zm0 0.8c1.5211 0 2.3449 0.4268 2.4191 0.6-0.02035 0.0476-0.10365 0.1155-0.23692 0.1875-0.34915 0.1892-1.0809 0.4125-2.1822 0.4125-1.1548 0-1.9049-0.2499-2.2321-0.4375-0.11053-0.0632-0.17388-0.1116-0.18705-0.15 0.051874-0.1672 0.87408-0.6125 2.4191-0.6125zm0 2c0.66 0 1.1971 0.5384 1.1971 1.2s-0.5371 1.2-1.1971 1.2c-0.66 0-1.1971-0.5384-1.1971-1.2s0.5371-1.2 1.1971-1.2zm0 0.8c-0.22038 0-0.39903 0.17909-0.39903 0.4 0 0.22091 0.17865 0.4 0.39903 0.4s0.39903-0.17909 0.39903-0.4c0-0.22091-0.17865-0.4-0.39903-0.4zm-2.3443 1.825 0.34915 1.775s0.39903 0.8 1.9952 0.8c1.5961 0 1.9952-0.8 1.9952-0.8l0.34915-1.775c-0.18116 0.12-0.95728 0.575-2.3443 0.575-1.387 0-2.1627-0.455-2.3443-0.575z" stroke-width=".39952"/>
</svg>
