<?xml version="1.0" encoding="UTF-8"?>
<svg id="icon-patreon" width="16" height="16" version="1.1" viewBox="0 0 15 15" xmlns="http://www.w3.org/2000/svg" xmlns:cc="http://creativecommons.org/ns#" xmlns:dc="http://purl.org/dc/elements/1.1/" xmlns:rdf="http://www.w3.org/1999/02/22-rdf-syntax-ns#">
 <metadata>
  <rdf:RDF>
   <cc:Work rdf:about="">
    <dc:format>image/svg+xml</dc:format>
    <dc:type rdf:resource="http://purl.org/dc/dcmitype/StillImage"/>
    <dc:title/>
   </cc:Work>
  </rdf:RDF>
 </metadata>
 <g transform="translate(-78.586 -736.88)">
  <path d="m86.086 736.88c-4.1422 0-7.5 3.3578-7.5 7.5v7.493h1.741v-7.493c0-3.1804 2.5786-5.759 5.759-5.759s5.759 2.5786 5.759 5.759c0 3.091-2.4358 5.6125-5.4923 5.752-0.97116-8e-3 -1.7991-0.16551-2.1618-0.38867v-2.4752c0.54125 0.35439 1.1886 0.561 1.8839 0.561 1.9016 0 3.4431-1.5414 3.4431-3.4431 0-1.9016-1.5415-3.4439-3.4431-3.4439-1.9016 0-3.4431 1.5423-3.4431 3.4439v7.487h3.14c0.10419 4e-3 0.20906 7e-3 0.31431 7e-3 4.1422 0 7.5-3.3578 7.5-7.4999s-3.3578-7.5-7.5-7.5zm-0.24156 13.253h0.4952c-0.08416 4e-3 -0.16857 6e-3 -0.25364 6e-3 -0.08082 0-0.16157-3e-3 -0.24156-6e-3z" fill="#fff"/>
 </g>
</svg>
