<?xml version="1.0" encoding="UTF-8" standalone="no"?>
<svg
   xmlns:dc="http://purl.org/dc/elements/1.1/"
   xmlns:cc="http://creativecommons.org/ns#"
   xmlns:rdf="http://www.w3.org/1999/02/22-rdf-syntax-ns#"
   xmlns:svg="http://www.w3.org/2000/svg"
   xmlns="http://www.w3.org/2000/svg"
   xmlns:xlink="http://www.w3.org/1999/xlink"
   xmlns:sodipodi="http://sodipodi.sourceforge.net/DTD/sodipodi-0.dtd"
   xmlns:inkscape="http://www.inkscape.org/namespaces/inkscape"
   viewBox="0 0 8.0238815 7.2150267"
   version="1.1"
   id="svg39"
   sodipodi:docname="bitbucket-inkscape.svg"
   inkscape:version="0.92.2 (5c3e80d, 2017-08-06)"
   width="8.023881"
   height="7.2150269">
  <metadata
     id="metadata43">
    <rdf:RDF>
      <cc:Work
         rdf:about="">
        <dc:format>image/svg+xml</dc:format>
        <dc:type
           rdf:resource="http://purl.org/dc/dcmitype/StillImage" />
        <dc:title>Bitbucket-blue</dc:title>
      </cc:Work>
    </rdf:RDF>
  </metadata>
  <sodipodi:namedview
     pagecolor="#000000"
     bordercolor="#666666"
     borderopacity="1"
     objecttolerance="10"
     gridtolerance="10"
     guidetolerance="10"
     inkscape:pageopacity="0"
     inkscape:pageshadow="2"
     inkscape:window-width="2756"
     inkscape:window-height="1755"
     id="namedview41"
     showgrid="false"
     inkscape:pagecheckerboard="true"
     inkscape:zoom="22.627417"
     inkscape:cx="40.818808"
     inkscape:cy="16.078438"
     inkscape:window-x="-13"
     inkscape:window-y="-13"
     inkscape:window-maximized="1"
     inkscape:current-layer="Layer_2"
     fit-margin-top="0"
     fit-margin-left="0"
     fit-margin-right="0"
     fit-margin-bottom="0" />
  <defs
     id="defs9">
    <style
       id="style2">.cls-1{fill:#253858;}.cls-2{fill:none;}.cls-3{fill:#2684ff;}.cls-4{fill:url(#New_Gradient_Swatch_1);}</style>
    <linearGradient
       id="White-To-Transparent"
       x1="64.010002"
       y1="30.27"
       x2="32.990002"
       y2="54.48"
       gradientUnits="userSpaceOnUse"
       gradientTransform="translate(0.02579294,0.8798377)">
      <stop
         offset="0.18"
         stop-color="#0052cc"
         id="stop4"
         style="stop-color:#ffffff;stop-opacity:0" />
      <stop
         offset="1"
         stop-color="#2684ff"
         id="stop6"
         style="stop-color:#ffffff;stop-opacity:1" />
    </linearGradient>
    <linearGradient
       inkscape:collect="always"
       xlink:href="#White-To-Transparent"
       id="linearGradient4754"
       gradientUnits="userSpaceOnUse"
       gradientTransform="matrix(0.12854092,0,0,0.12854092,0.00469957,55.081724)"
       x1="64.010002"
       y1="30.27"
       x2="32.990002"
       y2="54.48" />
  </defs>
  <title
     id="title11">Bitbucket-blue</title>
  <g
     id="Layer_2"
     data-name="Layer 2"
     transform="translate(-0.00132572,-55.886388)">
    <polygon
       style="fill:none"
       id="polygon31"
       points="40.9,25.12 21.23,25.12 24.7,43.51 37.75,43.51 "
       class="cls-2" />
    <path
       style="fill:#ffffff;fill-opacity:1;stroke-width:0.1285409"
       d="m 0.26172968,55.886409 a 0.25708182,0.25708182 0 0 0 -0.25708183,0.298256 l 1.09134235,6.624877 a 0.34963128,0.34963128 0 0 0 0.1443575,0.228463 0.34834588,0.34834588 0 0 1 -0.027365,-0.02134 L 3.1860357,60.674559 2.7336316,58.310611 H 5.2620214 7.6746745 L 7.3279654,60.445092 8.021885,56.18592 A 0.25708182,0.25708182 0 0 0 7.7648033,55.887664 Z m 0.97861812,7.151596 a 0.34963128,0.34963128 0 0 0 0.029626,0.01858 0.34834588,0.34834588 0 0 1 -0.029626,-0.01858 z m 0.029626,0.01858 a 0.34963128,0.34963128 0 0 0 0.031132,0.01556 0.34834588,0.34834588 0 0 1 -0.031132,-0.01556 z m 0.031132,0.01556 a 0.34963128,0.34963128 0 0 0 0.020085,0.0075 0.34834588,0.34834588 0 0 1 -0.020085,-0.0075 z"
       id="path33"
       inkscape:connector-curvature="0" />
    <path
       inkscape:connector-curvature="0"
       style="opacity:1;fill:url(#linearGradient4754);stroke-width:0.1285409"
       id="path35"
       d="M 7.6747359,58.310669 H 5.2620229 L 4.857119,60.674537 H 3.1860873 l -1.9731031,2.342016 a 0.34834588,0.34834588 0 0 0 0.2249466,0.08484 h 5.2367569 a 0.25708182,0.25708182 0 0 0 0.2570821,-0.21595 z"
       class="cls-4" />
  </g>
</svg>
