<?xml version="1.0" encoding="UTF-8" standalone="no"?>
<svg
   xmlns:dc="http://purl.org/dc/elements/1.1/"
   xmlns:cc="http://creativecommons.org/ns#"
   xmlns:rdf="http://www.w3.org/1999/02/22-rdf-syntax-ns#"
   xmlns:svg="http://www.w3.org/2000/svg"
   xmlns="http://www.w3.org/2000/svg"
   xmlns:sodipodi="http://sodipodi.sourceforge.net/DTD/sodipodi-0.dtd"
   xmlns:inkscape="http://www.inkscape.org/namespaces/inkscape"
   viewBox="0 0 6.3845 8"
   width="12.769"
   height="16"
   style="fill:#ffffff"
   version="1.1"
   id="icon-bitbucket"
   sodipodi:docname="bitbucket-inkscape.svg"
   inkscape:version="0.92.0 r15299">
  <metadata
     id="metadata10">
    <rdf:RDF>
      <cc:Work
         rdf:about="">
        <dc:format>image/svg+xml</dc:format>
        <dc:type
           rdf:resource="http://purl.org/dc/dcmitype/StillImage" />
        <dc:title></dc:title>
      </cc:Work>
    </rdf:RDF>
  </metadata>
  <defs
     id="defs8" />
  <sodipodi:namedview
     pagecolor="#ffffff"
     bordercolor="#666666"
     borderopacity="1"
     objecttolerance="10"
     gridtolerance="10"
     guidetolerance="10"
     inkscape:pageopacity="0"
     inkscape:pageshadow="2"
     inkscape:window-width="2754"
     inkscape:window-height="1755"
     id="namedview6"
     showgrid="false"
     inkscape:pagecheckerboard="true"
     inkscape:zoom="78.666667"
     inkscape:cx="9.263749"
     inkscape:cy="8.0171656"
     inkscape:window-x="-13"
     inkscape:window-y="-13"
     inkscape:window-maximized="1"
     inkscape:current-layer="icon-bitbucket" />
  <path
     d="M 3.19225,-4.0000001e-8 C 1.6436098,-4.0000001e-8 0,0.23799997 0,1.2 0,1.8063999 0.2257519,3.561 0.3366826,4.3749999 0.3737922,4.6474001 0.5474708,4.8876 0.7980625,5 c 0,0 0.7980626,0.6 2.3941875,0.6 C 4.788375,5.6 5.586437,5 5.586437,5 5.837029,4.8876 6.010707,4.6474001 6.047817,4.3749999 6.158748,3.561 6.3845,1.8063999 6.3845,1.2 6.3845,0.23799997 4.741289,-4.0000001e-8 3.19225,-4.0000001e-8 Z M 3.19225,0.79999995 C 4.713357,0.79999995 5.537157,1.2268 5.611377,1.4 5.591027,1.4476 5.507729,1.5155 5.374452,1.5875 5.0253,1.7766999 4.293576,1.9999999 3.19225,1.9999999 2.0374536,1.9999999 1.2873746,1.7500999 0.960169,1.5625 0.8496373,1.4993001 0.7862911,1.4509 0.7731231,1.4124999 0.8249972,1.2453001 1.6472009,0.79999995 3.19225,0.79999995 Z m 0,1.99999995 c 0.659998,0 1.197094,0.5384 1.197094,1.2000001 0,0.6616001 -0.537096,1.1999999 -1.197094,1.1999999 C 2.5322523,5.1999999 1.9951563,4.6616001 1.9951563,4 c 0,-0.6616001 0.537096,-1.2000001 1.1970937,-1.2000001 z m 0,0.8 C 2.971871,3.5999999 2.7932188,3.779086 2.7932188,4 c 0,0.2209141 0.1786522,0.4 0.3990312,0.4 0.220379,0 0.399031,-0.1790859 0.399031,-0.4 0,-0.220914 -0.178652,-0.4000001 -0.399031,-0.4000001 z M 0.8479415,5.425 1.1970938,7.2 c 0,0 0.3990313,0.8 1.9951562,0.8 C 4.788375,8 5.187406,7.2 5.187406,7.2 L 5.536559,5.425 C 5.355398,5.5449999 4.579283,5.9999999 3.19225,5.9999999 c -1.3870326,0 -2.1627493,-0.455 -2.3443085,-0.5749999 z"
     id="path2"
     inkscape:connector-curvature="0"
     style="stroke-width:0.39951533" />
</svg>
